<svg width="1066" height="1365" viewBox="0 0 1066 1365" fill="none" xmlns="http://www.w3.org/2000/svg">
<g clip-path="url(#clip0_194_523)">
<path d="M800 1365C1241.83 1365 1600 1006.83 1600 565C1600 123.172 1241.83 -235 800 -235C358.172 -235 0 123.172 0 565C0 1006.83 358.172 1365 800 1365Z" fill="#134074"/>
<path d="M717 1202C1102.49 1202 1415 889.495 1415 504C1415 118.505 1102.49 -194 717 -194C331.505 -194 19 118.505 19 504C19 889.495 331.505 1202 717 1202Z" fill="#F8FAFF" stroke="#134074" stroke-width="4"/>
<path d="M922.502 755.44C922.502 774.741 922.972 794.16 920.545 813.392C917.974 833.763 911.928 851.931 903.604 870.621C899.753 879.267 894.932 887.751 888.732 894.992C883.361 901.264 876.179 904.864 869.356 909.196C863.113 913.16 848.638 913.982 842.015 910.008" stroke="black" stroke-width="8" stroke-linecap="round"/>
<path d="M545.83 753.474C544.073 756.988 543.504 760.89 542.03 764.521C538.429 773.397 534.482 781.674 531.957 790.989C528.799 802.637 524.169 814.051 520.452 825.55C518.008 833.111 515.616 840.58 513.686 848.3C512.632 852.514 511 857.194 511 861.552" stroke="black" stroke-width="8" stroke-linecap="round"/>
<path d="M529.787 804.98C537.673 828.637 553.878 853.182 576.485 865.141C581.691 867.895 589.414 869.966 591.379 862.748C592.776 857.614 592.136 851.442 590.745 846.354C588.415 837.826 584.773 830.726 580.871 822.923" stroke="black" stroke-width="8" stroke-linecap="round"/>
<path d="M597.758 801.18C594.927 800.061 590.029 797.208 588.634 801.134C585.956 808.669 581.759 815.499 578.983 823.017C576.015 831.054 572.298 838.731 569.589 846.858C568.604 849.815 567.15 853.334 567.15 856.486" stroke="black" stroke-width="8" stroke-linecap="round"/>
<path d="M580.66 831.788C580.764 831.574 581.286 830.274 580.941 831.226C579.279 835.811 577.763 840.443 576.063 845.017C574.272 849.833 571.758 855.009 571.677 860.262C571.609 864.654 573.58 861.416 574.538 859.007C577.04 852.716 580.026 843.907 579.78 837.031C579.519 829.727 578.087 851.638 578.643 858.925C578.875 861.966 580.548 865.016 581.739 860.309C583.215 854.472 582.993 847.938 583.064 841.944C583.13 836.365 582.028 854.044 585.351 858.527C586.529 860.116 585.951 851.606 585.902 851.162C585.711 849.441 584.291 838.273 584.671 845.885C584.892 850.328 584.353 856.972 586.406 861.013C586.646 861.484 587.683 853.571 587.731 852.382C587.764 851.597 588.444 846.776 586.781 846.776" stroke="black" stroke-width="8" stroke-linecap="round"/>
<path d="M583.404 784.926C584.671 785.602 586.297 785.453 587.673 785.841C591.464 786.911 595.316 788.153 599.036 789.453C601.17 790.199 602.937 791.161 604.513 792.737" stroke="black" stroke-width="8" stroke-linecap="round"/>
<path d="M575.383 767.828C578.911 767.122 583.503 770.372 586.453 771.768C591.34 774.081 596.231 776.39 601.112 778.711C603.694 779.938 610.903 784.612 608.524 783.027" stroke="black" stroke-width="8" stroke-linecap="round"/>
<path d="M562.506 751.785C573.439 754.959 584.869 756.567 595.425 760.979C600.249 762.996 604.893 766.762 610.001 768.039" stroke="black" stroke-width="8" stroke-linecap="round"/>
<path d="M722.09 730.254C724.378 730.085 726.904 728.067 729.127 727.393C732.325 726.422 735.583 725.493 738.802 724.555C742.943 723.347 747.25 722.991 751.432 722.021C754.284 721.36 757.035 720.222 759.77 721.81C762.066 723.144 764.4 724.443 766.654 725.845C769.927 727.879 772.24 730.802 775.309 733.069C778.667 735.55 781.352 737.149 783.987 740.551C787.062 744.52 790.64 747.961 793.416 752.172C796.119 756.273 799.47 759.945 802.352 763.935C805.363 768.104 807.695 772.987 810.983 776.882C815.78 782.564 818.365 788.803 821.514 795.481C824.214 801.206 827.49 806.691 830.286 812.403C834.795 821.612 839.208 831.244 842.201 841.077" stroke="black" stroke-width="8" stroke-linecap="round"/>
<path d="M846.212 798.858C850.773 802.13 852.666 811.044 854.89 815.98C855.951 818.336 857.127 820.717 858.033 823.134" stroke="black" stroke-width="8" stroke-linecap="round"/>
<path d="M757.765 779.438C761.415 784.25 765.826 788.537 769.469 793.393C771.359 795.913 772.867 799.027 775.074 801.298C775.648 801.888 777.437 804.347 778.03 804.347" stroke="black" stroke-width="8" stroke-linecap="round"/>
<path d="M800.194 765.295C799.93 770.046 795.127 776.207 792.782 780.4C789.341 786.554 785.412 791.95 782.697 798.53C780.791 803.148 778.388 808.129 775.367 812.157C772.711 815.699 768.353 821.481 763.546 821.644C754.595 821.948 759.041 795.817 762.362 791.611C762.93 790.892 761.988 796.819 761.94 797.146C761.261 801.781 761.358 806.409 761.564 811.078C761.58 811.442 761.965 817.542 762.549 816.402C764.579 812.445 764.289 806.735 764.379 802.447C764.394 801.749 764.064 793.958 763.933 798.553C763.784 803.795 763.738 809.409 764.731 814.573C765.446 818.293 767.195 807.344 767.287 806.528C768.86 792.662 766.673 812.32 769.586 813.236C770.004 813.367 773.39 800.888 770.055 810.21C769.018 813.108 768.32 816.72 766.537 819.287C765.275 821.104 766.074 817.576 766.138 817.141C766.78 812.767 767.153 808.423 767.358 804.007C767.445 802.115 767.287 800.278 767.287 798.401C767.287 797.733 770.436 800.873 770.759 801.227C771.86 802.436 774.77 805.383 773.245 807.091C770.683 809.959 754.104 821.481 766.197 822.489C768.571 822.687 770.714 821.883 771.861 819.803C774.85 814.381 779.026 809.764 781.993 804.229C786.141 796.495 790.599 788.363 793.861 780.235C795.095 777.161 796.769 774.371 798.13 771.37C798.426 770.716 798.731 768.348 799.35 768.039" stroke="black" stroke-width="8" stroke-linecap="round"/>
<path d="M741.933 758.329C744.929 758.735 747.995 758.761 751.01 758.962" stroke="black" stroke-width="8" stroke-linecap="round"/>
<path d="M730.323 748.83C736.074 747.987 741.894 748.646 747.656 747.939C748.813 747.797 750.632 747.685 751.221 746.508" stroke="black" stroke-width="8" stroke-linecap="round"/>
<path d="M729.057 738.698C736.559 737.118 744.58 738.039 751.854 735.742" stroke="black" stroke-width="8" stroke-linecap="round"/>
<path d="M767.264 684.025C761.592 690.012 758.552 698.824 754.211 705.803C751.548 710.085 749.818 714.968 746.999 719.113C746.241 720.229 749.887 719.699 750.67 719.699C754.293 719.699 755.346 717.234 757.237 714.317C761.565 707.641 765.402 700.662 769.117 693.665C769.921 692.15 771.486 690.458 771.486 688.669C771.486 686.699 771.329 684.958 769.164 684.236" stroke="black" stroke-width="8" stroke-linecap="round"/>
<path d="M581.926 744.819C582.463 742.137 580.547 738.144 579.944 735.566C579.239 732.546 578.392 729.636 577.869 726.572C577.332 723.432 576.599 719.833 575.5 716.85C574.828 715.026 577.911 715.267 578.795 715.267C594.151 715.267 609.362 719.37 624.614 720.86C642.269 722.586 660.28 725.035 677.691 728.471C682.295 729.38 689.448 728.172 692.116 732.67C694.888 737.345 696.286 743.086 698.484 748.079C701.975 756.015 704.958 763.891 709.003 771.557C713.87 780.781 718.489 790.097 723.334 799.339C725.966 804.363 727.651 809.757 730.276 814.784C732.759 819.539 735.648 824.088 737.664 829.068C741.025 837.369 746.325 845.062 749.016 853.519C749.929 856.387 753.121 859.61 753.121 862.608" stroke="black" stroke-width="8" stroke-linecap="round"/>
<path d="M578.127 701.123C581.164 701.123 584.063 702.502 587.016 703.082C592.69 704.195 598.372 705.054 604.138 705.392C611.724 705.836 619.521 707.291 627.088 708.195C636.258 709.291 645.67 709.38 654.893 709.86C668.292 710.557 681.693 710.663 695.071 711.666C697.794 711.87 702.926 710.937 704.265 714.211C708.52 724.612 713.515 735.063 718.854 744.96C722.545 751.802 725.359 758.69 727.907 766.01C730.996 774.882 735.272 783.219 738.262 792.139C740.934 800.108 744.642 807.635 747.703 815.441C750.849 823.463 755.427 830.604 758.961 838.391C760.921 842.711 763.505 846.435 765.575 850.576" stroke="black" stroke-width="8" stroke-linecap="round"/>
<path d="M752.06 593.223C751.891 595.424 749.039 596.949 747.548 598.175C742.875 602.018 735.469 604.341 729.915 606.562C724.119 608.881 717.2 610.181 710.962 610.26C708.719 610.289 703.374 611.483 701.541 610.26" stroke="black" stroke-width="8" stroke-linecap="round"/>
<path d="M759.192 603.525C758.48 604.504 752.244 611.236 751.268 610.26" stroke="black" stroke-width="8" stroke-linecap="round"/>
<path d="M609.884 441.342C609.07 465.751 608.842 489.76 614.187 513.814C617.055 526.722 619.32 539.646 626.364 551.063C631.316 559.088 634.212 566.824 641.251 573.408C651.568 583.06 665.503 586.025 679.312 581.665C690.085 578.263 698.685 570.202 709.149 566.714" stroke="black" stroke-width="8" stroke-linecap="round"/>
<path d="M648.328 530.853C645.916 534.017 649.832 543.931 651.356 546.919C653.184 550.502 657.821 550.926 661.238 549.788" stroke="black" stroke-width="8" stroke-linecap="round"/>
<path d="M681.033 550.935C679.55 553.407 676.508 564.384 674.148 562.698" stroke="black" stroke-width="8" stroke-linecap="round"/>
<path d="M681.033 515.073C681.251 516.217 681.238 516.948 682.181 517.655" stroke="black" stroke-width="8" stroke-linecap="round"/>
<path d="M629.679 519.377C630.153 520.629 630.519 521.916 631.114 523.106" stroke="black" stroke-width="8" stroke-linecap="round"/>
<path d="M628.819 497.573C630.508 498.386 631.183 500.58 631.975 502.163" stroke="black" stroke-width="8" stroke-linecap="round"/>
<path d="M685.911 490.114C688.24 491.71 690.321 493.491 692.222 495.565" stroke="black" stroke-width="8" stroke-linecap="round"/>
<path d="M611.318 440.481C618.459 445.7 624.733 451.085 632.915 454.826C639.217 457.706 646.532 459.246 653.253 460.85C661.468 462.812 669.424 465.673 677.75 467.162C687.887 468.975 698.209 470.466 708.543 470.254C712.234 470.179 717.497 469.041 721.135 470.254C725.053 471.56 726.666 488.807 727.733 492.058C730.282 499.818 732.833 512.489 739.273 518.213C743.59 522.051 747.885 505.57 749.187 502.562C751.218 497.87 752.339 487.518 758.718 486.161C764.106 485.014 770.486 488.707 770.895 494.481C771.714 506.041 765.119 514.84 761.252 525.083C758.227 533.096 756.487 542.197 756.487 550.76C756.487 558.16 757.014 564.693 759.356 571.719C761.344 577.686 765.498 580.832 768.982 585.745C770.964 588.538 772.824 592.263 775.709 594.256C779.566 596.922 784.902 599.994 789.623 599.994C810.047 599.994 818.883 581.683 819.667 563.463C820.471 544.784 817.745 525.955 815.268 507.487C812.455 486.516 807.712 464.897 802.23 444.481C798.225 429.566 792.284 415.621 783.423 402.834C777.882 394.838 768.207 387.911 760.28 382.528C750.639 375.982 743.095 369.188 731.622 365.952C721.581 363.12 711.392 359.368 701.084 357.744C685.651 355.313 670.681 359.153 656.488 364.741C641.331 370.708 624.615 381.891 615.765 395.853C609.958 405.015 603.572 415.413 603.572 426.71C603.572 427.83 601.269 427.214 600.48 427.348C597.432 427.863 594.135 429.974 591.682 431.778C588.355 434.226 586.265 437.708 584.924 441.549C582.522 448.426 578.726 454.303 577.911 461.711C576.265 476.676 580.707 491.844 584.223 506.275C589.079 526.21 594.998 547.543 603.986 566.109C611.015 580.626 617.559 596.052 627.607 608.76C634.873 617.949 644.831 619.663 655.771 618.196C663.667 617.137 679.798 616.157 684.891 608.824C689.927 601.572 684.329 590.945 681.894 583.641" stroke="black" stroke-width="8" stroke-linecap="round"/>
<path d="M815.691 605.428C824.386 607.536 833.061 608.317 841.87 610.66C852.811 613.57 861.8 619.217 869.451 627.435C892.824 652.539 902.378 686.625 912.46 718.702" stroke="black" stroke-width="8" stroke-linecap="round"/>
<path d="M630.569 638.115C623.352 642.734 619.424 650.414 614.135 656.958C604.956 668.318 600.47 679.126 600.47 694.105" stroke="black" stroke-width="8" stroke-linecap="round"/>
<path d="M643.318 512.381C646.211 511.164 649.925 512.384 653.021 511.42C655.383 510.684 658.038 510.68 660.276 509.934" stroke="#E2C044" stroke-width="8" stroke-linecap="round"/>
<path d="M661.325 509.06C660.336 506.589 660.914 503.391 660.985 500.815C661.065 497.891 661.251 494.008 662.101 491.19C663.706 485.871 668.168 479.386 673.775 477.807C681.356 475.673 690.757 476.991 696.035 483.148C702.509 490.701 708.435 502.66 707.961 512.848C707.559 521.497 704.122 530.683 695.802 534.719C689.31 537.868 682.156 536.266 676.359 532.136C668.229 526.345 664.148 516.482 661.15 507.487" stroke="#E2C044" stroke-width="8" stroke-linecap="round"/>
<path d="M769.9 678.796C770.693 676.576 771.333 672.754 774.266 673.901C776.182 674.651 779.906 673.756 778.838 676.18C777.935 678.228 777.687 680.938 776.397 682.78C774.839 685.006 774.414 681.178 772.017 681.178" stroke="#E2C044" stroke-width="8" stroke-linecap="round"/>
<path d="M696.085 704.667C692.84 696.11 683.2 700.347 679.338 706.473C676.123 711.571 677.718 719.607 679.12 725.046C679.82 727.765 682.109 734.165 685.37 734.491" stroke="#E2C044" stroke-width="8" stroke-linecap="round"/>
<path d="M669.476 697.524C669.611 697.524 668.62 696.744 668.464 696.621C666.75 695.265 664.59 693.687 662.333 693.624C656.726 693.469 654.626 700.098 654.048 704.627C653.09 712.139 655.2 720.056 659.674 726.177C660.102 726.763 665.743 734.974 666.619 732.348" stroke="#E2C044" stroke-width="8" stroke-linecap="round"/>
<path d="M645.545 696.095C643.428 694.189 642.013 692.373 638.838 692.206C634.462 691.975 631.246 698.25 631.12 701.909C630.887 708.639 632.119 717.007 635.465 722.962C636.378 724.587 643.887 733.927 643.581 728.419" stroke="#E2C044" stroke-width="8" stroke-linecap="round"/>
<path d="M622.508 696.452C622.845 696.41 620.252 694.305 619.789 694.13C615.342 692.455 612.334 697.321 611.118 701.016C608.659 708.486 611.479 718.063 614.739 724.927C615.913 727.398 619.343 734.792 622.508 731.276" stroke="#E2C044" stroke-width="8" stroke-linecap="round"/>
<path d="M597.327 696.631C597.327 695.434 596.06 693.943 595.412 693.059C592.091 688.523 588.565 691.709 587.346 695.976C584.967 704.303 586.806 714.045 590.323 721.772C591.058 723.388 599.067 735.499 600.899 730.919" stroke="#E2C044" stroke-width="8" stroke-linecap="round"/>
<path d="M592.267 456.926C592.498 461.093 593.767 473.482 594.052 469.319C594.342 465.089 593.786 460.751 593.852 456.506C593.875 455.016 593.948 453.528 593.976 452.038C593.987 451.424 593.445 449.921 593.995 450.196C594.811 450.604 595.268 447.111 595.99 445.928C597.394 443.629 599.573 441.513 601.241 439.36C602.509 437.724 603.467 436.564 605.404 435.789C606.845 435.212 606.178 434.09 604.831 434.09C604.112 434.09 603.43 434.748 602.998 435.235C601.275 437.178 599.239 438.649 597.308 440.372C593.878 443.431 591.022 447.388 588.563 451.255C586.291 454.827 586.124 458.839 585.307 462.893C584.425 467.271 584.352 470.444 585.202 474.837C586.031 479.121 585.738 483.582 587.073 487.763C588.602 492.552 591.067 497.19 592.267 502.046C593.922 508.742 595.544 515.303 597.527 521.913C599.046 526.976 602.055 531.496 602.912 536.797C603.673 541.51 603.937 547.038 605.805 551.481C609.122 559.372 613.228 566.966 616.631 574.814C618.325 578.721 620.068 583.435 622.455 586.939C624.358 589.733 627.092 591.782 628.832 594.729C629.959 596.638 631.378 598.287 632.737 600.028C635.271 603.273 636.822 606.384 639.983 609.088C642.567 611.298 645.817 610.503 649.015 610.348C652.889 610.161 656.761 609.852 660.633 609.699C663.713 609.577 667.534 609.471 670.534 608.82C676.967 607.425 680.496 601.902 678.591 595.531C678.173 594.13 677.489 591.592 676.539 590.395C674.618 587.973 669.24 589.045 666.877 589.869C661.842 591.627 657.637 590.992 652.49 589.764C645.679 588.14 640.743 582.991 634.198 580.809C633.376 580.536 630.094 579.019 631.438 581.086C634.192 585.318 638.204 588.567 642.561 591.025C650.676 595.604 659.293 596.846 668.185 598.911C668.884 599.073 669.283 600.152 670.142 599.865C672.706 599.011 664.711 599.266 662.037 599.655C656.721 600.429 650.699 603.139 645.291 602.443C635.513 601.184 632.067 584.707 628.45 577.544C624.322 569.368 610.093 545.837 614.569 553.829C616.969 558.115 620.415 561.871 623.371 565.763C625.406 568.442 628.038 570.905 627.429 574.422C627.269 575.343 627.771 576.429 626.827 575.119C623.931 571.099 621.805 567.246 620.135 562.574C614.627 547.165 608.15 531.928 604.697 515.889C602.835 507.237 602.079 498.562 600.668 489.835C599.757 484.2 598.752 478.798 599.141 473.042C599.57 466.689 601.351 460.57 602.368 454.311C603.019 450.298 604.694 438.289 603.475 442.167C602.996 443.69 602.984 445.399 602.52 446.959C602.28 447.768 602.55 443.817 602.597 443.484C603.354 438.067 606.468 432.182 610.731 428.667C613.472 426.407 615.621 421.735 617.232 418.557C617.944 417.153 618.025 415.638 618.426 414.136C619.184 411.292 620.824 408.623 622.579 406.289C625.865 401.919 629.733 396.629 633.921 393.047C637.177 390.262 640.195 387.326 643.305 384.388C645.686 382.139 638.161 388.465 635.84 390.775C632.667 393.931 629.885 397.749 626.312 400.465C622.538 403.333 621.418 406.037 620.469 410.747C619.035 417.865 615.939 424.646 614.664 431.751C614.151 434.611 619.151 435.972 620.965 437.298C624.611 439.96 629.097 441.913 633.3 443.56C636.311 444.741 639.04 446.344 642.036 447.503C649.974 450.576 657.706 449.946 665.865 451.294C670.418 452.046 674.59 454.302 679.126 454.998C681.761 455.402 684.428 455.629 687.069 456C688.798 456.243 693.626 458.037 692.206 457.022C690.041 455.476 686.323 454.766 683.842 454.024C677.345 452.081 670.48 450.898 663.689 451.036C663.062 451.049 660.176 450.848 659.497 451.504C658.375 452.588 662.247 453.025 663.736 453.489C668.353 454.928 673.078 456.207 677.761 457.413C683.902 458.996 690.097 460.085 696.406 460.707C701.87 461.246 707.647 460.622 713.037 461.7C717.254 462.543 721.436 461.344 725.62 461.815C728.274 462.113 729.6 464.205 730.461 466.559C731.859 470.382 732.743 474.516 733.965 478.407C735.633 483.721 736.456 489.191 737.058 494.695C737.345 497.32 738.547 499.86 739.187 502.418C739.435 503.41 739.035 506.345 739.674 507.144C739.928 507.462 739.808 507.344 739.884 506.533C740.422 500.745 741.335 495.034 744.142 489.845C745.66 487.038 749.082 484.302 751.608 482.408C755.263 479.666 759.068 476.804 763.828 476.765C769.428 476.72 773.074 481.339 775.781 485.835C780.655 493.931 780.331 504.032 777.232 512.825C773.383 523.744 769.356 534.683 766.215 545.848C763.036 557.145 763.921 568.357 771.465 577.63C777.32 584.826 786.563 592.35 796.469 589.048C800.891 587.575 803.562 583.719 805.434 579.645C808.259 573.497 811.607 568.434 811.506 561.391C811.387 553.086 810.262 544.842 808.995 536.654C807.755 528.639 805.229 521.099 803.735 513.168C802.211 505.081 801.116 496.879 799.305 488.852C798.301 484.403 797.169 479.975 796.355 475.486C795.975 473.394 793.838 467.417 794.741 465.385C795.133 464.503 795.411 467.196 795.706 468.116C796.771 471.442 797.839 474.769 798.885 478.102C801.723 487.151 805.197 496.496 806.131 505.989C806.521 509.957 806.861 514.181 806.923 518.161C806.997 522.855 806.597 527.547 806.064 532.205C805.737 535.06 804.186 556.837 800.584 557.037C797.08 557.232 796.864 532.563 796.823 531.852C796.557 527.259 797.78 514.703 794.789 518.2C791.404 522.157 790.386 530.625 789.548 535.289C787.793 545.053 785.424 557.248 787.581 567.176C787.673 567.598 788.055 568.435 788.402 568.179C790.717 566.467 789.92 562.6 790.235 559.739C790.894 553.746 791.23 547.644 791.276 541.619C791.3 538.427 791.461 531.889 790.111 528.377C788.545 524.303 784.845 527.517 783.304 529.58C777.711 537.067 775.549 548.761 775.036 557.82C775.007 558.328 774.646 570.763 779.275 565.228C782.592 561.263 783.575 554.775 783.896 549.839C784.111 546.518 784.485 538.437 781.614 540.12C779.765 541.203 778.673 547.357 778.53 548.072C777.584 552.82 777.15 557.089 777.537 561.935C777.931 566.85 779.349 573.393 783.361 576.838C787.561 580.444 791.688 574.302 793.577 571.339C793.917 570.804 796.356 566.989 796.049 565.916C795.793 565.021 795.46 567.683 795.209 568.579C794.6 570.755 794.13 572.62 793.605 574.823C791.679 582.904 794.845 573.218 795.658 570.976C796.501 568.651 797.445 566.371 798.331 564.064C799.539 560.917 798.194 557.935 797.395 554.727C793.984 541.023 790.84 527.537 788.66 513.598C787.498 506.174 785.977 498.756 783.991 491.506C783.854 491.005 783.422 489.545 783.399 490.064C783.202 494.562 783.517 499.226 783.81 503.707C784.137 508.707 784.663 513.731 785.595 518.658C786.736 524.689 787.018 516.316 787.065 515.545C787.852 502.681 787.904 489.46 786.674 476.622C786.376 473.516 785.963 470.43 785.251 467.39C785.039 466.482 784.77 465.629 784.526 464.736C784.433 464.396 784.736 465.409 784.831 465.748C786.761 472.621 788.581 479.606 791.514 486.14C792.619 488.601 792.954 487.827 793.09 485.587C793.407 480.347 792.997 475.052 792.832 469.815C792.657 464.265 791.949 457.865 793.5 452.42C794.399 449.266 796.504 458.528 796.737 459.342C797.496 461.998 798.341 464.701 798.656 467.457C798.705 467.893 799.491 469.666 799.4 468.249C798.716 457.586 792.237 447.564 789.509 437.336C787.521 429.878 785.504 421.232 781.022 414.852C778.183 410.812 774.61 407.455 770.988 404.131C766.983 400.455 763.518 396.265 759.627 392.474C752.943 385.962 744.819 383.455 736.237 380.34C719.324 374.201 702.272 376.219 684.721 378.373C676.178 379.421 667.634 380.474 659.096 381.562C653.398 382.288 647.921 383.128 643.888 387.567C638.894 393.064 633.933 399.141 629.577 405.143C626.545 409.32 624.014 413.759 622.55 418.738C622.013 420.564 620.741 424.267 622.636 424.447C624.796 424.652 630.56 418.832 630.579 418.814C636.174 413.691 641.48 408.215 646.666 402.68C649.829 399.304 649.081 399.666 646.59 403.367C642.31 409.725 638.157 416.429 635.057 423.454C630.81 433.077 639.667 424.296 641.53 422.29C644.722 418.85 648.117 414.843 650.132 410.547C651.318 408.018 649.531 409.884 648.891 410.652C646.517 413.495 644.619 416.622 643.115 420.017C641.186 424.369 638.264 431.842 643.573 435.426C646.272 437.249 652.145 437.374 655.029 437.584C662.296 438.113 661.606 437.706 669.006 439.035C685.905 442.07 702.209 447.631 718.708 452.229C729.303 455.182 741.452 455.676 751.073 461.337C751.975 461.868 752.866 462.422 753.727 463.017C754.537 463.578 756.46 464.379 755.808 465.118C755.046 465.982 753.49 465.395 752.429 465.843C750.457 466.676 749.891 467.572 748.973 469.49C748.625 470.217 748.01 475.139 746.443 472.679C745.979 471.952 740.715 461.235 739.588 464.793C738.905 466.946 740.141 470.952 742.882 471.094C747.803 471.35 752.851 464.746 756.61 462.406C767.632 455.548 775.679 463.543 782.33 472.345C782.808 472.977 783.246 473.638 783.705 474.283C784.209 474.992 784.139 474.947 783.705 473.958C781.38 468.668 779.495 463.114 776.888 457.957C776.003 456.206 772.659 448.473 769.021 451.074C765.171 453.827 766.44 461.456 767.475 465.194C767.724 466.093 768.886 468.205 767.99 467.944C766.107 467.395 764.432 466.792 762.453 466.559C758.463 466.091 763.744 462.595 765.241 461.089C770.141 456.159 775.106 451.561 779.39 446.043C780.239 444.949 784.777 439.222 784.01 436.228C783.298 433.447 779.163 439.853 778.148 442.539C776.686 446.408 774.508 453.342 776.315 457.528C777.058 459.248 776.88 453.793 776.755 451.924C776.271 444.701 775.144 437.468 773.165 430.5C771.799 425.689 768.65 414.315 762.988 423.149C760.222 427.464 759.67 433.125 759.551 438.09C759.503 440.071 760.008 454.057 765.04 446.53C768.137 441.899 768.878 435.57 768.353 430.156C767.853 424.998 764.912 413.433 757.565 419.979C751.975 424.96 748.246 433.338 747.235 440.63C746.404 446.621 749.958 453.715 754.596 445.546C757.746 439.998 766.174 413.074 753.632 412.542C747.443 412.279 743.734 418.651 741.831 423.55C741.318 424.871 735.473 445.288 742.786 442.873C748.423 441.011 750.986 432.375 751.197 427.388C751.529 419.528 746.308 405.396 735.779 410.843C728.446 414.635 723.5 424.54 721.611 432.161C721.053 434.409 720.195 439.847 723.635 441.288C726.466 442.475 731.891 439.981 733.793 438.539C740.196 433.682 743.512 425.306 745.011 417.717C746.015 412.628 747.297 402.721 740.418 400.331C734.676 398.336 728.187 403.407 725.191 407.616C721.212 413.204 717.436 425.633 723.892 431.063C728.54 434.973 736.788 432.977 741.679 430.92C748.526 428.041 754.692 421.107 754.51 413.258C754.382 407.744 750.059 404.688 744.81 405.028C733.828 405.742 725.603 416.383 722.632 426.137C719.712 435.725 725.863 434.713 731.731 429.469C734.681 426.832 751.755 409.978 742.586 404.561C733.742 399.335 720.067 414.245 715.672 419.483C713.524 422.043 708.858 428.907 708.646 433.173C708.501 436.08 711.418 436.535 713.343 435.503C720.83 431.486 726.158 421.213 729.84 414.165C732.177 409.692 741.887 390.832 728.169 393.219C718.524 394.897 710.656 403.189 705.362 410.814C702.335 415.173 698.077 423.521 697.017 429.068C696.55 431.512 696.629 435.919 700.683 433.612C707.677 429.634 713.245 420.198 716.446 413.191C718.095 409.581 722.344 399.044 718.307 395.023C713.928 390.661 703.749 402.559 702.373 404.026C697.927 408.767 693.726 413.994 690.745 419.817C689.757 421.748 688.354 426.709 690.487 426.318C696.469 425.223 702.543 413.799 705.094 409.668C705.653 408.763 721.61 383.164 710.918 387.29C702.023 390.722 693.034 398.45 686.496 405.133C681.648 410.09 677.819 414.94 674.801 421.163C673.957 422.904 672.833 424.753 672.997 426.681C673.062 427.44 674.66 427.21 675.279 426.767C683.247 421.058 689.403 409.239 693.294 400.599C695.072 396.651 699.069 386.88 690.497 388.455C682.234 389.972 674.986 397.161 669.598 403.004C665.528 407.418 659.84 414.851 656.748 420.189C655.878 421.691 654.978 423.273 654.733 424.991C654.669 425.444 655.602 425.806 655.984 425.555C661.974 421.609 666.639 412.659 669.751 406.585C670.567 404.992 680.182 384.168 669.598 388.445C661.081 391.888 654.03 401.38 648.671 408.332C647.64 409.669 642.664 416.569 641.663 419.445C641.033 421.255 644.264 416.591 645.234 414.938C648.421 409.506 651.334 403.653 652.652 397.448C653.293 394.431 652.185 396.238 652.786 397.047C654.23 398.993 655.985 398.651 658.266 398.155C659.043 397.986 673.925 392.52 673.608 391.548C672.024 386.693 663.111 387.544 660.051 389.82C656.989 392.098 659.529 393.724 662.037 393.515" stroke="black" stroke-width="16" stroke-linecap="round"/>
<path d="M714.279 389.734C720.489 387.446 729.129 387.314 735.492 388.76C744.658 390.844 752.418 400.717 758.711 407.129C759.598 408.033 762.636 412.638 764.114 412.933C765.537 413.218 767.081 414.426 768.277 415.206C769.164 415.784 771.872 417.938 769.002 417.86C765.88 417.774 762.583 416.437 759.608 415.664C753.58 414.097 747.577 412.601 741.297 412.647C726.439 412.755 712.699 419.145 698.373 422.213C691.642 423.655 684.826 424.597 678.038 425.707C676.561 425.949 669.872 426.297 668.987 428.066C668.074 429.891 688.577 436.113 690.602 436.543C691.32 436.696 698.235 438.549 698.927 437.345C699.581 436.208 691.307 433.519 691.089 433.45C679.579 429.796 667.565 430.214 655.726 431.713C654.224 431.903 649.753 432.631 651.211 432.219C658.095 430.27 664.823 427.749 671.469 425.115C691.371 417.229 712.512 407.791 729.487 394.422C731.85 392.56 730.431 391.011 730.995 388.541C731.838 384.854 736.457 382.446 735.836 378.679C735.675 377.705 735.486 376.355 735.626 375.375C735.697 374.88 736.349 374.565 736.275 374.096C736.176 373.47 725.012 371.266 723.921 370.869C717.993 368.709 710.972 366.324 704.579 366.267C696.154 366.193 687.402 366.044 679.002 366.811C672.675 367.389 666.27 368.048 660.309 370.392C654.32 372.746 648.869 376.408 643.344 379.662C639.923 381.677 639.869 382.492 644.127 381.161C656.153 377.4 667.849 373.187 680.453 371.719C689.667 370.645 698.778 371.281 707.739 373.619C712.25 374.795 716.791 376.423 721.487 376.664C723.165 376.75 725.824 379.48 726.728 380.292C737.138 389.643 746.363 400.177 753.116 412.418" stroke="black" stroke-width="16" stroke-linecap="round"/>
<path d="M641.396 512.032C641.396 500.095 632.993 484.623 620.923 480.992C615.846 479.465 608.767 480.567 604.509 483.799C597.563 489.074 596.332 498.642 596.915 506.885C597.574 516.217 598.159 525.621 605.306 532.544C610.849 537.912 616.047 543.553 624.419 542.955C638.109 541.977 641.745 525.038 641.745 514.13" stroke="#E2C044" stroke-width="8" stroke-linecap="round"/>
<path d="M765.689 519.549C764.331 516.832 761.022 518.557 762.261 521.375C764.835 527.23 771.058 523.835 766.738 519.122C765.545 517.82 763.29 521.452 763.038 522.181C762.442 523.903 763.454 527.548 765.942 526.755C770.026 525.453 767.547 518.433 763.358 519.5C758.077 520.847 767.904 531.009 767.904 523.628C767.904 521.99 766.986 517.991 764.864 517.791C762.569 517.575 760.667 520.49 760.814 522.511C760.999 525.052 764.5 528.563 767.175 527.289C769.553 526.157 769.526 522.082 768.962 519.967C768.333 517.609 766.652 516.704 764.427 517.743C761.344 519.181 762.168 523.342 763.902 525.736C767.683 530.953 773.009 518.697 765.379 517.432C757.596 516.141 761.994 528.28 767.34 526.522C771.64 525.108 765.982 510.713 760.814 520.909C757.228 527.982 772.205 531.96 768.292 521.55C767.473 519.369 765.396 516.107 762.543 516.81C759.739 517.501 760.211 521.36 761.397 523.201C763.41 526.327 769.454 526.655 769.186 521.899C768.969 518.067 765.675 515.542 762.562 518.656C755.351 525.866 772.277 530.767 768.739 519.394C767.425 515.171 761.905 514.372 760.62 519.199C759.565 523.16 764.572 525.131 767.437 526.192" stroke="#E2C044" stroke-width="8" stroke-linecap="round"/>
<path d="M779.409 441.116C782.211 446.915 785.012 452.871 787.237 458.912C787.73 460.249 788.349 462.012 787.963 463.476C787.924 463.623 785.918 456.099 785.853 455.781C785.198 452.59 783.826 448.54 784.144 445.203C784.262 443.962 785.787 447.154 786.187 448.334C787.951 453.539 788.619 459.354 788.345 464.831" stroke="black" stroke-width="16" stroke-linecap="round"/>
<path d="M698.64 368.769C701.896 368.769 705.645 370.317 708.722 371.356C712.784 372.727 716.946 373.933 720.885 375.652C728.029 378.769 734.675 382.08 741.354 386.087C748.692 390.49 754.519 396.475 761.279 401.582C763.868 403.538 765.554 406.125 767.819 408.389C769.473 410.044 772.315 412.103 773.05 414.308" stroke="white" stroke-width="8" stroke-linecap="round"/>
<path d="M781.815 429.431C781.797 429.571 781.656 429.603 781.815 429.603" stroke="white" stroke-width="8" stroke-linecap="round"/>
<path d="M190 586.065C190.04 591.469 190.157 597.508 190.491 602.515" stroke="black" stroke-width="8" stroke-linecap="round"/>
<path d="M190.737 585.574C196.451 585.574 202.17 584.339 207.869 583.938C216.695 583.315 225.658 583.671 234.508 583.597C246.102 583.5 257.693 583.449 269.277 583.992C269.679 584.011 272.169 583.795 272.237 584.401C272.604 587.713 271.98 591.277 272.305 594.686C273.962 612.056 277.403 628.831 283.108 645.318C284.547 649.478 287.321 654.092 287.95 658.495C288.169 660.026 272.359 663.3 271.077 663.582C253.052 667.552 234.682 666.106 216.516 666.106" stroke="black" stroke-width="8" stroke-linecap="round"/>
<path d="M193.928 619.457C191.941 619.457 201.54 653.187 201.54 658.74" stroke="black" stroke-width="8" stroke-linecap="round"/>
<path d="M339.769 600.551C356.172 602.631 373.113 601.53 389.597 601.165C397.089 600.999 404.526 600.745 412.007 600.36C412.166 600.352 416.016 600.266 416.004 600.36C415.468 604.65 416.456 609.755 416.754 614.041C417.361 622.763 418.717 631.339 420.792 639.835C423.798 652.149 428.55 664.138 434.595 675.245C434.993 675.975 436.659 677.942 435.55 678.628C431.661 681.032 423.926 680.447 419.619 680.81C402.768 682.231 384.98 683.032 368.086 682.188C366.812 682.124 363.004 682.685 361.962 681.642C360.93 680.61 360.561 678.873 360.093 677.564C358.498 673.101 355.831 669.298 353.764 665.069C350.553 658.501 349.207 651.139 345.839 644.677C344.305 641.736 343.452 639.258 343.452 635.907" stroke="black" stroke-width="8" stroke-linecap="round"/>
<path d="M365.819 500.389C363.7 493.284 364.066 483.509 365.595 476.249C366.179 473.475 367.244 470.345 367.244 467.498C367.244 464.69 360.997 465.009 358.811 464.898C343.335 464.108 328.107 462.457 312.814 459.526C306.127 458.245 299.831 455.77 293.254 454.168C292.209 453.913 288.87 452.667 287.896 453.693C286.229 455.447 286.929 460.134 286.813 462.192C286.206 472.94 286.362 483.257 287.671 493.961C288.631 501.807 289.738 509.71 292.079 517.283C293.305 521.245 295.414 524.973 296.514 528.95C297.096 531.052 297.078 534.199 298.705 535.826C300.869 537.991 306.271 538.08 309.013 538.796C318.537 541.283 327.987 544.049 337.838 544.946C345.952 545.686 354.829 545.031 362.889 543.864C364.184 543.677 366.59 542.735 367.72 543.864" stroke="black" stroke-width="8" stroke-linecap="round"/>
<path d="M309.039 496.587C314.167 493.051 316.24 496.964 321.05 498.91C323.572 499.931 326.934 497.417 329.457 496.944C335.473 495.816 339.501 504.033 342.537 494.924" stroke="black" stroke-width="8" stroke-linecap="round"/>
<path d="M313.078 519.632C316.595 521.039 321.123 520.767 324.851 521.796C327.589 522.552 331.434 524.584 334.354 524.119C338.171 523.513 340.524 520.222 343.725 518.444" stroke="black" stroke-width="8" stroke-linecap="round"/>
<path d="M217.099 624.876C218.231 624.049 218.926 622.693 220.148 621.986C222.838 620.428 226.205 623.501 228.582 624.48C231.977 625.878 234.073 623.713 236.95 622.131C239.114 620.941 241.774 620.423 244.195 620.019C247.633 619.446 248.439 623.405 252.062 623.807C254.461 624.074 255.111 621.174 255.111 619.174" stroke="black" stroke-width="8" stroke-linecap="round"/>
<path d="M227.315 648.396C233.413 646.573 242.144 646.126 248.379 647.63C253.049 648.756 254.858 648.224 257.724 644.595" stroke="black" stroke-width="8" stroke-linecap="round"/>
<path d="M364.394 637.705C366.208 636.03 368.399 634.946 370.887 634.722C373.52 634.485 374.16 635.978 376.272 636.887C378.799 637.974 381.811 638.004 384.455 638.946C387.194 639.921 389.545 638.8 392.295 638.286C393.722 638.019 396.435 639.399 397.416 638.418" stroke="black" stroke-width="8" stroke-linecap="round"/>
<path d="M375.559 664.075C382.057 665.623 388.693 659.637 395.014 662.597C398.766 664.355 402.607 664.844 405.018 660.987" stroke="black" stroke-width="8" stroke-linecap="round"/>
<path d="M372.93 614.538C371.813 613.53 358.956 595.547 364.47 593.381C368.291 591.88 383.689 589.508 386.736 594.015C389.676 598.363 389.742 604.726 391.291 609.609C392.446 613.25 392.907 612.724 389.201 613.025C384.678 613.392 379.1 615.479 374.933 612.448C371.32 609.821 373.301 601.663 369.99 598.108C369.488 597.57 371.588 601.185 371.719 601.423C372.426 602.706 376.16 611.722 377.772 611.627C378.334 611.594 373.237 601.454 372.728 600.731C368.123 594.193 371.54 601.398 373.463 604.089C373.774 604.525 382.073 613.98 381.188 609.552C380.339 605.307 376.287 600.159 372.872 597.618C369.621 595.2 374.902 603.191 375.538 603.787C376.942 605.102 386.62 610.784 383.566 604.565C382.313 602.015 379.26 597.991 376.677 596.61C374.853 595.634 378.81 600.292 380.482 601.51C383.609 603.788 383.902 601.514 382.153 599.06C381.532 598.188 377.172 594.985 379.718 597.1C380.618 597.848 387.019 600.868 386.376 601.221C384.487 602.26 384.545 600.636 383.306 601.048" stroke="#E2C044" stroke-width="8" stroke-linecap="round"/>
<path d="M222.986 598.973C220.345 596.332 210.654 574.388 215.953 574.098C221.33 573.803 226.47 574.192 231.835 573.449C234.99 573.013 236.209 573.728 238.09 576.375C242.221 582.188 243.545 590.966 245.757 597.647C246.948 601.245 241.02 598.354 238.148 598.44C234.779 598.54 228.554 599.265 225.782 597.186C223.203 595.252 222.957 590.734 222.208 587.905C221.512 585.275 218.436 577.801 219.945 580.064C222.243 583.512 223.677 587.55 225.998 591.032C228.01 594.049 230.223 596.194 228.419 591.046C227.217 587.615 226.157 582.625 223.966 579.661C221.711 576.61 226.559 586.969 229.01 589.865C230.319 591.411 234.357 596.073 233.392 590.989C232.606 586.852 229.454 582.679 227.166 579.229C224.79 575.645 225.589 582.186 226.099 583.379C227.349 586.302 231.958 590.929 235.366 591.219C238.279 591.467 232.582 581.36 231.85 580.497C229.291 577.481 234.667 584.562 235.438 585.368C235.792 585.738 234.662 583.555 234.545 583.408C232.216 580.503 227.834 578.979 224.269 578.407C222.262 578.085 219.433 577.64 221.43 580.036" stroke="#E2C044" stroke-width="8" stroke-linecap="round"/>
<path d="M314.042 446.176C313.593 446.126 315.342 470.995 318.711 475.317C321.558 478.97 330.595 476.628 334.507 476.11C338.528 475.578 338.183 475.058 337.375 471.455C335.758 464.241 337.236 456.71 333.498 450.384C331.579 447.136 326.848 446.11 323.438 445.513C320.719 445.037 318.403 443.572 315.714 443.005C314.016 442.648 318.037 460.206 318.437 462.001C319.15 465.193 319.496 469.767 321.248 472.637C321.435 472.944 321.941 464.966 321.824 463.816C321.59 461.51 318.245 445.266 318.913 454.982C319.274 460.226 320.595 467.925 324.202 472.003C326.864 475.011 326.539 463.548 326.422 462.836C326.076 460.741 325.35 454.848 322.833 453.901C320.171 452.899 324.418 465.944 324.707 466.555C325.118 467.424 328.553 474.17 330.385 471.325C332.697 467.735 330.616 461.505 329.203 458.008C328.54 456.366 323.704 449.567 327.07 454.939C327.722 455.979 334.648 468.367 331.423 464.335" stroke="#E2C044" stroke-width="8" stroke-linecap="round"/>
</g>
<defs>
<clipPath id="clip0_194_523">
<rect width="1066" height="1365" fill="white"/>
</clipPath>
</defs>
</svg>
