<svg width="101" height="100" viewBox="0 0 101 100" fill="none" xmlns="http://www.w3.org/2000/svg">
<g clip-path="url(#clip0_124_604)">
<path fill-rule="evenodd" clip-rule="evenodd" d="M24.8243 50.0001C24.8243 35.8196 36.3196 24.3243 50.5001 24.3243C64.6804 24.3243 76.1757 35.8196 76.1757 50.0001C76.1757 64.1804 64.6804 75.6757 50.5001 75.6757C36.3196 75.6757 24.8243 64.1804 24.8243 50.0001ZM50.5001 66.6667C41.2952 66.6667 33.8333 59.2048 33.8333 50.0001C33.8333 40.7952 41.2952 33.3333 50.5001 33.3333C59.7048 33.3333 67.1667 40.7952 67.1667 50.0001C67.1667 59.2048 59.7048 66.6667 50.5001 66.6667Z" fill="#0B2545"/>
<path d="M77.1901 29.3098C80.5038 29.3098 83.1902 26.6237 83.1902 23.3099C83.1902 19.9962 80.5038 17.3098 77.1901 17.3098C73.8765 17.3098 71.1902 19.9962 71.1902 23.3099C71.1902 26.6237 73.8765 29.3098 77.1901 29.3098Z" fill="#0B2545"/>
<path fill-rule="evenodd" clip-rule="evenodd" d="M50.5001 0C36.9208 0 35.2181 0.0575579 29.8851 0.300889C24.5631 0.543624 20.9285 1.38893 17.7481 2.62503C14.4602 3.90262 11.6718 5.61229 8.89193 8.39193C6.11229 11.1718 4.40262 13.9602 3.12503 17.2481C1.88893 20.4285 1.04362 24.0631 0.800889 29.3851C0.557558 34.7181 0.5 36.4208 0.5 50.0001C0.5 63.5792 0.557558 65.2819 0.800889 70.6149C1.04362 75.9369 1.88893 79.5715 3.12503 82.7519C4.40262 86.0398 6.11229 88.8282 8.89193 91.6081C11.6718 94.3877 14.4602 96.0974 17.7481 97.3752C20.9285 98.6111 24.5631 99.4564 29.8851 99.6991C35.2181 99.9424 36.9208 100 50.5001 100C64.0792 100 65.7819 99.9424 71.1149 99.6991C76.4369 99.4564 80.0715 98.6111 83.2519 97.3752C86.5398 96.0974 89.3282 94.3877 92.1081 91.6081C94.8877 88.8282 96.5974 86.0398 97.8752 82.7519C99.1111 79.5715 99.9564 75.9369 100.199 70.6149C100.442 65.2819 100.5 63.5792 100.5 50.0001C100.5 36.4208 100.442 34.7181 100.199 29.3851C99.9564 24.0631 99.1111 20.4285 97.8752 17.2481C96.5974 13.9602 94.8877 11.1718 92.1081 8.39193C89.3282 5.61229 86.5398 3.90262 83.2519 2.62503C80.0715 1.38893 76.4369 0.543624 71.1149 0.300889C65.7819 0.0575579 64.0792 0 50.5001 0ZM50.5001 9.00899C63.8505 9.00899 65.432 9.06 70.7043 9.30055C75.5792 9.52285 78.2267 10.3374 79.9886 11.0221C82.3224 11.9292 83.9881 13.0126 85.7376 14.7624C87.4874 16.512 88.5708 18.1776 89.4779 20.5114C90.1626 22.2733 90.9772 24.9208 91.1995 29.7957C91.44 35.068 91.491 36.6495 91.491 50.0001C91.491 63.3505 91.44 64.932 91.1995 70.2043C90.9772 75.0792 90.1626 77.7267 89.4779 79.4886C88.5708 81.8224 87.4874 83.488 85.7376 85.2376C83.9881 86.9874 82.3224 88.0708 79.9886 88.9779C78.2267 89.6626 75.5792 90.4772 70.7043 90.6994C65.4328 90.94 63.8515 90.991 50.5001 90.991C37.1485 90.991 35.5674 90.94 30.2957 90.6994C25.4208 90.4772 22.7733 89.6626 21.0114 88.9779C18.6776 88.0708 17.012 86.9874 15.2624 85.2376C13.5128 83.488 12.4292 81.8224 11.5221 79.4886C10.8374 77.7267 10.0229 75.0792 9.80056 70.2043C9.56001 64.932 9.509 63.3505 9.509 50.0001C9.509 36.6495 9.56001 35.068 9.80056 29.7957C10.0229 24.9208 10.8374 22.2733 11.5221 20.5114C12.4292 18.1776 13.5126 16.512 15.2624 14.7624C17.012 13.0126 18.6776 11.9292 21.0114 11.0221C22.7733 10.3374 25.4208 9.52285 30.2957 9.30055C35.568 9.06 37.1495 9.00899 50.5001 9.00899Z" fill="#0B2545"/>
</g>
<defs>
<clipPath id="clip0_124_604">
<rect width="100" height="100" fill="white" transform="translate(0.5)"/>
</clipPath>
</defs>
</svg>
