<svg width="101" height="100" viewBox="0 0 101 100" fill="none" xmlns="http://www.w3.org/2000/svg">
<g clip-path="url(#clip0_124_603)">
<path d="M93.0916 0.00745656H7.87911C3.85179 -0.0379927 0.549151 3.18804 0.5 7.21541V92.7832C0.547468 96.8125 3.84985 100.042 7.87911 99.9994H93.0916C97.1288 100.049 100.444 96.8204 100.5 92.7832V7.20923C100.442 3.17391 97.1269 -0.0519382 93.0916 0.000633546" fill="#0B2545"/>
<path d="M70.8878 85.2063H85.7047L85.7109 59.0292C85.7109 46.1784 82.942 36.3003 67.9245 36.3003C62.1834 36.0872 56.7905 39.0491 53.8901 44.0083H53.691V37.4872H39.4668V85.2047H54.2837V61.5991C54.2837 55.3743 55.4644 49.3456 63.1815 49.3456C70.7891 49.3456 70.8878 56.4686 70.8878 62.0019V85.2063Z" fill="white"/>
<path d="M14.1485 22.3675C14.1493 27.1164 17.9997 30.9654 22.7484 30.9645C25.0289 30.9641 27.2158 30.0578 28.828 28.445C30.4402 26.8321 31.3457 24.6449 31.3453 22.3644C31.3445 17.6155 27.4941 13.7665 22.7454 13.7673C17.9966 13.7682 14.1476 17.6186 14.1485 22.3675Z" fill="white"/>
<path d="M15.3246 85.2063H30.1569V37.4872H15.3246V85.2063Z" fill="white"/>
</g>
<defs>
<clipPath id="clip0_124_603">
<rect width="100" height="100" fill="white" transform="translate(0.5)"/>
</clipPath>
</defs>
</svg>
