<svg width="165" height="35" viewBox="0 0 165 35" fill="none" xmlns="http://www.w3.org/2000/svg">
<path d="M21.024 18.288L17.024 26.48C16.6827 27.1627 16.32 27.6533 15.936 27.952C15.552 28.2293 15.0933 28.368 14.56 28.368C13.8773 28.368 13.3013 28.1333 12.832 27.664C12.3627 27.1733 11.7547 26.2987 11.008 25.04L7.296 18.288V27.344C7.296 28.2613 7.08267 28.9333 6.656 29.36C6.25067 29.7867 5.632 30 4.8 30C3.86133 30 3.17867 29.7973 2.752 29.392C2.32533 28.9653 2.112 28.144 2.112 26.928V12.976C2.112 11.3333 2.48533 10.096 3.232 9.264C3.97867 8.432 5.23733 8.016 7.008 8.016C7.66933 8.016 8.24533 8.13333 8.736 8.368C9.22667 8.58133 9.58933 8.83733 9.824 9.136C10.08 9.41333 10.3253 9.76533 10.56 10.192L14.848 19.568L19.392 10.352C20.1813 8.816 21.6 8.048 23.648 8.048C24.608 8.048 25.4293 8.21867 26.112 8.56C26.7947 8.88 27.328 9.41333 27.712 10.16C28.1173 10.8853 28.32 11.8027 28.32 12.912V26.832C28.2987 28.944 26.9653 30 24.32 30C23.36 30 22.5707 29.744 21.952 29.232C21.3547 28.6987 21.0453 27.8453 21.024 26.672V18.288ZM37.2625 30.192C35.5772 30.192 34.1798 29.5093 33.0705 28.144C31.9612 26.7573 31.4065 24.8693 31.4065 22.48C31.4065 20.048 31.9505 18.1173 33.0385 16.688C34.1478 15.2373 35.5558 14.512 37.2625 14.512C38.9905 14.512 40.5905 15.12 42.0625 16.336C42.6385 15.2693 43.5665 14.736 44.8465 14.736C45.9985 14.736 46.8945 14.992 47.5345 15.504C48.1745 15.9947 48.4945 16.912 48.4945 18.256V26.576C48.4945 27.856 48.2278 28.752 47.6945 29.264C47.1612 29.7547 46.2225 30 44.8785 30C43.4705 30 42.5425 29.6053 42.0945 28.816C40.7292 29.7333 39.1185 30.192 37.2625 30.192ZM41.6145 19.408C41.2518 18.7893 40.7825 18.48 40.2065 18.48C39.6518 18.48 39.2038 18.8853 38.8625 19.696C38.5212 20.5067 38.3505 21.4347 38.3505 22.48C38.3505 23.4613 38.5105 24.336 38.8305 25.104C39.1505 25.872 39.5985 26.256 40.1745 26.256C40.7718 26.256 41.2518 25.968 41.6145 25.392V19.408ZM58.3833 26.576C58.3833 27.856 58.1166 28.752 57.5833 29.264C57.0499 29.7547 56.1006 30 54.7352 30C53.4766 30 52.6233 29.712 52.1753 29.136C51.7273 28.5387 51.5033 27.568 51.5033 26.224V18.352C51.5033 17.6267 51.6313 16.9973 51.8873 16.464C52.1433 15.9093 52.5166 15.4827 53.0073 15.184C53.4979 14.8853 54.0739 14.736 54.7352 14.736C56.3566 14.736 57.4233 15.2053 57.9353 16.144C59.1726 15.2053 60.3673 14.736 61.5193 14.736C63.7593 14.736 64.8793 15.8027 64.8793 17.936C64.8793 18.7893 64.6339 19.4827 64.1433 20.016C63.6526 20.5493 63.0126 20.816 62.2233 20.816C61.7539 20.816 61.3699 20.72 61.0713 20.528C60.7939 20.336 60.5273 20.144 60.2713 19.952C60.0366 19.76 59.7593 19.664 59.4392 19.664C58.9699 19.664 58.6179 19.824 58.3833 20.144V26.576ZM68.5095 23.152V19.376C67.9762 19.3547 67.5495 19.2693 67.2295 19.12C66.9095 18.9493 66.6748 18.736 66.5255 18.48C66.3975 18.224 66.3335 17.904 66.3335 17.52C66.3335 16.304 67.0695 15.6427 68.5415 15.536V12.56C68.5415 11.7493 69.1282 11.024 70.3015 10.384C71.4748 9.72267 72.6375 9.392 73.7895 9.392C74.4935 9.392 74.9522 9.59467 75.1655 10C75.3788 10.4053 75.4855 11.0133 75.4855 11.824L75.5175 15.504H76.3815C77.5548 15.504 78.3548 15.664 78.7815 15.984C79.2295 16.2827 79.4535 16.8373 79.4535 17.648C79.4535 17.9893 79.3895 18.2773 79.2615 18.512C79.1335 18.7467 78.9202 18.928 78.6215 19.056C78.3442 19.184 78.0028 19.28 77.5975 19.344C77.1922 19.3867 76.6908 19.408 76.0935 19.408H75.5175V22.928C75.5175 23.2693 75.5282 23.5573 75.5495 23.792C75.5922 24.0053 75.6455 24.176 75.7095 24.304C75.7735 24.432 75.8588 24.5173 75.9655 24.56C76.0935 24.6027 76.2428 24.624 76.4135 24.624C76.6695 24.624 76.8828 24.5387 77.0535 24.368C77.2242 24.176 77.3522 23.9733 77.4375 23.76C77.5442 23.5253 77.6722 23.3227 77.8215 23.152C77.9922 22.96 78.1842 22.864 78.3975 22.864C78.8882 22.864 79.2615 22.9813 79.5175 23.216C79.7948 23.4507 79.9335 23.7387 79.9335 24.08C79.9335 24.656 79.8162 25.2747 79.5815 25.936C79.3682 26.5973 79.0482 27.2373 78.6215 27.856C78.1948 28.4747 77.5975 28.9867 76.8295 29.392C76.0828 29.7973 75.2402 30 74.3015 30C72.1895 30 70.6962 29.4667 69.8215 28.4C68.9468 27.3333 68.5095 25.584 68.5095 23.152ZM88.2 30.192C86.5147 30.192 85.1173 29.5093 84.008 28.144C82.8987 26.7573 82.344 24.8693 82.344 22.48C82.344 20.048 82.888 18.1173 83.976 16.688C85.0853 15.2373 86.4933 14.512 88.2 14.512C89.928 14.512 91.528 15.12 93 16.336C93.576 15.2693 94.504 14.736 95.784 14.736C96.936 14.736 97.832 14.992 98.472 15.504C99.112 15.9947 99.432 16.912 99.432 18.256V26.576C99.432 27.856 99.1653 28.752 98.632 29.264C98.0987 29.7547 97.16 30 95.816 30C94.408 30 93.48 29.6053 93.032 28.816C91.6667 29.7333 90.056 30.192 88.2 30.192ZM92.552 19.408C92.1893 18.7893 91.72 18.48 91.144 18.48C90.5893 18.48 90.1413 18.8853 89.8 19.696C89.4587 20.5067 89.288 21.4347 89.288 22.48C89.288 23.4613 89.448 24.336 89.768 25.104C90.088 25.872 90.536 26.256 91.112 26.256C91.7093 26.256 92.1893 25.968 92.552 25.392V19.408Z" fill="#134074"/>
<path d="M116.04 25.2C116.04 26.928 115.731 28.1653 115.112 28.912C114.493 29.6373 113.544 30 112.264 30C111.027 30 110.12 29.6693 109.544 29.008C108.968 28.3253 108.669 27.1307 108.648 25.424L108.616 20.24L103.688 14.48C102.792 13.456 102.344 12.5707 102.344 11.824C102.344 10.6507 102.792 9.72267 103.688 9.04C104.541 8.4 105.299 8.08 105.96 8.08C106.877 8.08 107.699 8.496 108.424 9.328L112.328 13.872L115.592 10.064C116.68 8.76267 117.843 8.112 119.08 8.112C119.997 8.112 120.712 8.368 121.224 8.88C122.099 9.75467 122.536 10.5973 122.536 11.408C122.536 11.856 122.387 12.336 122.088 12.848C121.789 13.3387 121.309 13.9787 120.648 14.768L116.04 20.4V25.2Z" fill="#134074"/>
<path d="M155.272 30.192C152.669 30.192 150.515 29.52 148.808 28.176C147.123 26.832 146.28 24.9973 146.28 22.672C146.28 20.1547 147.112 18.1707 148.776 16.72C150.461 15.248 152.627 14.512 155.272 14.512C157.768 14.512 159.592 14.96 160.744 15.856C161.917 16.7307 162.504 17.936 162.504 19.472C162.504 19.7707 162.461 20.0587 162.376 20.336C162.312 20.6133 162.195 20.8907 162.024 21.168C161.875 21.424 161.661 21.6693 161.384 21.904C161.128 22.1173 160.829 22.32 160.488 22.512C160.147 22.6827 159.741 22.8213 159.272 22.928C158.803 23.0133 158.301 23.056 157.768 23.056L153.256 23.088C153.469 23.7707 153.853 24.3147 154.408 24.72C154.963 25.104 155.667 25.296 156.52 25.296C157.437 25.296 158.376 25.1787 159.336 24.944C159.741 24.8373 160.179 24.6667 160.648 24.432C161.139 24.1973 161.491 24.08 161.704 24.08C162.067 24.08 162.344 24.1867 162.536 24.4C162.749 24.6133 162.856 24.88 162.856 25.2C162.856 25.584 162.685 26.0533 162.344 26.608C162.003 27.1413 161.523 27.6853 160.904 28.24C160.307 28.7733 159.507 29.232 158.504 29.616C157.501 30 156.424 30.192 155.272 30.192ZM153.096 21.04C154.568 21.0187 155.368 21.008 155.496 21.008C155.816 21.008 156.051 20.816 156.2 20.432C156.307 20.1547 156.36 19.7707 156.36 19.28C156.36 17.936 155.955 17.264 155.144 17.264C154.845 17.264 154.547 17.424 154.248 17.744C153.971 18.064 153.725 18.5227 153.512 19.12C153.299 19.696 153.16 20.336 153.096 21.04Z" fill="#134074"/>
<path fill-rule="evenodd" clip-rule="evenodd" d="M136.419 26.4686C140.623 25.6727 143.386 21.6195 142.59 17.4155C142.558 17.246 142.521 17.0789 142.478 16.9142C142.959 17.8013 143.313 18.7768 143.51 19.8213C144.538 25.2477 140.971 30.4795 135.545 31.5068C130.118 32.5341 124.887 28.9679 123.859 23.5414C122.851 18.2129 126.271 13.0721 131.533 11.9156C128.498 13.4198 126.705 16.8067 127.366 20.2976C128.162 24.5016 132.215 27.2645 136.419 26.4686Z" fill="#E2C044"/>
</svg>
