<svg width="311" height="230" viewBox="0 0 311 230" fill="none" xmlns="http://www.w3.org/2000/svg">
<path d="M63.072 53.864L51.072 78.44C50.048 80.488 48.96 81.96 47.808 82.856C46.656 83.688 45.28 84.104 43.68 84.104C41.632 84.104 39.904 83.4 38.496 81.992C37.088 80.52 35.264 77.896 33.024 74.12L21.888 53.864V81.032C21.888 83.784 21.248 85.8 19.968 87.08C18.752 88.36 16.896 89 14.4 89C11.584 89 9.536 88.392 8.256 87.176C6.976 85.896 6.336 83.432 6.336 79.784V37.928C6.336 33 7.456 29.288 9.696 26.792C11.936 24.296 15.712 23.048 21.024 23.048C23.008 23.048 24.736 23.4 26.208 24.104C27.68 24.744 28.768 25.512 29.472 26.408C30.24 27.24 30.976 28.296 31.68 29.576L44.544 57.704L58.176 30.056C60.544 25.448 64.8 23.144 70.944 23.144C73.824 23.144 76.288 23.656 78.336 24.68C80.384 25.64 81.984 27.24 83.136 29.48C84.352 31.656 84.96 34.408 84.96 37.736V79.496C84.896 85.832 80.896 89 72.96 89C70.08 89 67.712 88.232 65.856 86.696C64.064 85.096 63.136 82.536 63.072 79.016V53.864ZM111.788 89.576C106.732 89.576 102.54 87.528 99.2115 83.432C95.8835 79.272 94.2195 73.608 94.2195 66.44C94.2195 59.144 95.8515 53.352 99.1155 49.064C102.444 44.712 106.668 42.536 111.788 42.536C116.972 42.536 121.772 44.36 126.188 48.008C127.916 44.808 130.7 43.208 134.54 43.208C137.996 43.208 140.684 43.976 142.604 45.512C144.524 46.984 145.484 49.736 145.484 53.768V78.728C145.484 82.568 144.684 85.256 143.083 86.792C141.484 88.264 138.668 89 134.636 89C130.412 89 127.628 87.816 126.284 85.448C122.188 88.2 117.356 89.576 111.788 89.576ZM124.844 57.224C123.756 55.368 122.348 54.44 120.62 54.44C118.956 54.44 117.612 55.656 116.588 58.088C115.564 60.52 115.052 63.304 115.052 66.44C115.052 69.384 115.532 72.008 116.492 74.312C117.452 76.616 118.796 77.768 120.524 77.768C122.316 77.768 123.756 76.904 124.844 75.176V57.224ZM175.15 78.728C175.15 82.568 174.35 85.256 172.75 86.792C171.15 88.264 168.302 89 164.206 89C160.43 89 157.87 88.136 156.526 86.408C155.182 84.616 154.51 81.704 154.51 77.672V54.056C154.51 51.88 154.894 49.992 155.662 48.392C156.43 46.728 157.55 45.448 159.022 44.552C160.494 43.656 162.222 43.208 164.206 43.208C169.07 43.208 172.27 44.616 173.806 47.432C177.518 44.616 181.102 43.208 184.558 43.208C191.278 43.208 194.638 46.408 194.638 52.808C194.638 55.368 193.902 57.448 192.43 59.048C190.958 60.648 189.038 61.448 186.67 61.448C185.262 61.448 184.11 61.16 183.214 60.584C182.382 60.008 181.582 59.432 180.814 58.856C180.11 58.28 179.278 57.992 178.318 57.992C176.91 57.992 175.854 58.472 175.15 59.432V78.728ZM205.529 68.456V57.128C203.929 57.064 202.649 56.808 201.689 56.36C200.729 55.848 200.025 55.208 199.577 54.44C199.193 53.672 199.001 52.712 199.001 51.56C199.001 47.912 201.209 45.928 205.625 45.608V36.68C205.625 34.248 207.385 32.072 210.905 30.152C214.425 28.168 217.913 27.176 221.369 27.176C223.481 27.176 224.857 27.784 225.497 29C226.137 30.216 226.457 32.04 226.457 34.472L226.553 45.512H229.145C232.665 45.512 235.065 45.992 236.345 46.952C237.689 47.848 238.361 49.512 238.361 51.944C238.361 52.968 238.169 53.832 237.785 54.536C237.401 55.24 236.761 55.784 235.865 56.168C235.033 56.552 234.009 56.84 232.793 57.032C231.577 57.16 230.073 57.224 228.281 57.224H226.553V67.784C226.553 68.808 226.585 69.672 226.649 70.376C226.777 71.016 226.937 71.528 227.129 71.912C227.321 72.296 227.577 72.552 227.897 72.68C228.281 72.808 228.729 72.872 229.241 72.872C230.009 72.872 230.649 72.616 231.161 72.104C231.673 71.528 232.057 70.92 232.313 70.28C232.633 69.576 233.017 68.968 233.465 68.456C233.977 67.88 234.553 67.592 235.193 67.592C236.665 67.592 237.785 67.944 238.553 68.648C239.385 69.352 239.801 70.216 239.801 71.24C239.801 72.968 239.449 74.824 238.745 76.808C238.105 78.792 237.145 80.712 235.865 82.568C234.585 84.424 232.793 85.96 230.489 87.176C228.249 88.392 225.721 89 222.905 89C216.569 89 212.089 87.4 209.465 84.2C206.841 81 205.529 75.752 205.529 68.456ZM264.6 89.576C259.544 89.576 255.352 87.528 252.024 83.432C248.696 79.272 247.032 73.608 247.032 66.44C247.032 59.144 248.664 53.352 251.928 49.064C255.256 44.712 259.48 42.536 264.6 42.536C269.784 42.536 274.584 44.36 279 48.008C280.728 44.808 283.512 43.208 287.352 43.208C290.808 43.208 293.496 43.976 295.416 45.512C297.336 46.984 298.296 49.736 298.296 53.768V78.728C298.296 82.568 297.496 85.256 295.896 86.792C294.296 88.264 291.48 89 287.448 89C283.224 89 280.44 87.816 279.096 85.448C275 88.2 270.168 89.576 264.6 89.576ZM277.656 57.224C276.568 55.368 275.16 54.44 273.432 54.44C271.768 54.44 270.424 55.656 269.4 58.088C268.376 60.52 267.864 63.304 267.864 66.44C267.864 69.384 268.344 72.008 269.304 74.312C270.264 76.616 271.608 77.768 273.336 77.768C275.128 77.768 276.568 76.904 277.656 75.176V57.224Z" fill="#13315C"/>
<path d="M45.12 148.6C45.12 153.784 44.192 157.496 42.336 159.736C40.48 161.912 37.632 163 33.792 163C30.08 163 27.36 162.008 25.632 160.024C23.904 157.976 23.008 154.392 22.944 149.272L22.848 133.72L8.064 116.44C5.376 113.368 4.032 110.712 4.032 108.472C4.032 104.952 5.376 102.168 8.064 100.12C10.624 98.2 12.896 97.24 14.88 97.24C17.632 97.24 20.096 98.488 22.272 100.984L33.984 114.616L43.776 103.192C47.04 99.288 50.528 97.336 54.24 97.336C56.992 97.336 59.136 98.104 60.672 99.64C63.296 102.264 64.608 104.792 64.608 107.224C64.608 108.568 64.16 110.008 63.264 111.544C62.368 113.016 60.928 114.936 58.944 117.304L45.12 134.2V148.6Z" fill="#13315C"/>
<path d="M154.816 163.576C147.008 163.576 140.544 161.56 135.424 157.528C130.368 153.496 127.84 147.992 127.84 141.016C127.84 133.464 130.336 127.512 135.328 123.16C140.384 118.744 146.88 116.536 154.816 116.536C162.304 116.536 167.776 117.88 171.232 120.568C174.752 123.192 176.512 126.808 176.512 131.416C176.512 132.312 176.384 133.176 176.128 134.008C175.936 134.84 175.584 135.672 175.072 136.504C174.624 137.272 173.984 138.008 173.152 138.712C172.384 139.352 171.488 139.96 170.464 140.536C169.44 141.048 168.224 141.464 166.816 141.784C165.408 142.04 163.904 142.168 162.304 142.168L148.768 142.264C149.408 144.312 150.56 145.944 152.224 147.16C153.888 148.312 156 148.888 158.56 148.888C161.312 148.888 164.128 148.536 167.008 147.832C168.224 147.512 169.536 147 170.944 146.296C172.416 145.592 173.472 145.24 174.112 145.24C175.2 145.24 176.032 145.56 176.608 146.2C177.248 146.84 177.568 147.64 177.568 148.6C177.568 149.752 177.056 151.16 176.032 152.824C175.008 154.424 173.568 156.056 171.712 157.72C169.92 159.32 167.52 160.696 164.512 161.848C161.504 163 158.272 163.576 154.816 163.576ZM148.288 136.12C152.704 136.056 155.104 136.024 155.488 136.024C156.448 136.024 157.152 135.448 157.6 134.296C157.92 133.464 158.08 132.312 158.08 130.84C158.08 126.808 156.864 124.792 154.432 124.792C153.536 124.792 152.64 125.272 151.744 126.232C150.912 127.192 150.176 128.568 149.536 130.36C148.896 132.088 148.48 134.008 148.288 136.12Z" fill="#13315C"/>
<path fill-rule="evenodd" clip-rule="evenodd" d="M95.5308 155.143C109.097 152.575 118.013 139.496 115.444 125.93C115.341 125.383 115.22 124.843 115.083 124.312C116.634 127.175 117.775 130.322 118.413 133.693C121.728 151.204 110.22 168.086 92.7087 171.402C75.1977 174.717 58.3148 163.208 54.9998 145.698C51.7446 128.503 62.7823 111.913 79.7618 108.181C69.9701 113.035 64.1843 123.965 66.3169 135.23C68.8851 148.796 81.9647 157.712 95.5308 155.143Z" fill="#E2C044"/>
</svg>
