<svg width="165" height="36" viewBox="0 0 165 36" fill="none" xmlns="http://www.w3.org/2000/svg">
<path d="M21.024 18.788L17.024 26.98C16.6827 27.6627 16.32 28.1533 15.936 28.452C15.552 28.7293 15.0933 28.868 14.56 28.868C13.8773 28.868 13.3013 28.6333 12.832 28.164C12.3627 27.6733 11.7547 26.7987 11.008 25.54L7.296 18.788V27.844C7.296 28.7613 7.08267 29.4333 6.656 29.86C6.25067 30.2867 5.632 30.5 4.8 30.5C3.86133 30.5 3.17867 30.2973 2.752 29.892C2.32533 29.4653 2.112 28.644 2.112 27.428V13.476C2.112 11.8333 2.48533 10.596 3.232 9.764C3.97867 8.932 5.23733 8.516 7.008 8.516C7.66933 8.516 8.24533 8.63333 8.736 8.868C9.22667 9.08133 9.58933 9.33733 9.824 9.636C10.08 9.91333 10.3253 10.2653 10.56 10.692L14.848 20.068L19.392 10.852C20.1813 9.316 21.6 8.548 23.648 8.548C24.608 8.548 25.4293 8.71867 26.112 9.06C26.7947 9.38 27.328 9.91333 27.712 10.66C28.1173 11.3853 28.32 12.3027 28.32 13.412V27.332C28.2987 29.444 26.9653 30.5 24.32 30.5C23.36 30.5 22.5707 30.244 21.952 29.732C21.3547 29.1987 21.0453 28.3453 21.024 27.172V18.788ZM37.2625 30.692C35.5772 30.692 34.1798 30.0093 33.0705 28.644C31.9612 27.2573 31.4065 25.3693 31.4065 22.98C31.4065 20.548 31.9505 18.6173 33.0385 17.188C34.1478 15.7373 35.5558 15.012 37.2625 15.012C38.9905 15.012 40.5905 15.62 42.0625 16.836C42.6385 15.7693 43.5665 15.236 44.8465 15.236C45.9985 15.236 46.8945 15.492 47.5345 16.004C48.1745 16.4947 48.4945 17.412 48.4945 18.756V27.076C48.4945 28.356 48.2278 29.252 47.6945 29.764C47.1612 30.2547 46.2225 30.5 44.8785 30.5C43.4705 30.5 42.5425 30.1053 42.0945 29.316C40.7292 30.2333 39.1185 30.692 37.2625 30.692ZM41.6145 19.908C41.2518 19.2893 40.7825 18.98 40.2065 18.98C39.6518 18.98 39.2038 19.3853 38.8625 20.196C38.5212 21.0067 38.3505 21.9347 38.3505 22.98C38.3505 23.9613 38.5105 24.836 38.8305 25.604C39.1505 26.372 39.5985 26.756 40.1745 26.756C40.7718 26.756 41.2518 26.468 41.6145 25.892V19.908ZM58.3833 27.076C58.3833 28.356 58.1166 29.252 57.5833 29.764C57.0499 30.2547 56.1006 30.5 54.7352 30.5C53.4766 30.5 52.6233 30.212 52.1753 29.636C51.7273 29.0387 51.5033 28.068 51.5033 26.724V18.852C51.5033 18.1267 51.6313 17.4973 51.8873 16.964C52.1433 16.4093 52.5166 15.9827 53.0073 15.684C53.4979 15.3853 54.0739 15.236 54.7352 15.236C56.3566 15.236 57.4233 15.7053 57.9353 16.644C59.1726 15.7053 60.3673 15.236 61.5193 15.236C63.7593 15.236 64.8793 16.3027 64.8793 18.436C64.8793 19.2893 64.6339 19.9827 64.1433 20.516C63.6526 21.0493 63.0126 21.316 62.2233 21.316C61.7539 21.316 61.3699 21.22 61.0713 21.028C60.7939 20.836 60.5273 20.644 60.2713 20.452C60.0366 20.26 59.7593 20.164 59.4392 20.164C58.9699 20.164 58.6179 20.324 58.3833 20.644V27.076ZM68.5095 23.652V19.876C67.9762 19.8547 67.5495 19.7693 67.2295 19.62C66.9095 19.4493 66.6748 19.236 66.5255 18.98C66.3975 18.724 66.3335 18.404 66.3335 18.02C66.3335 16.804 67.0695 16.1427 68.5415 16.036V13.06C68.5415 12.2493 69.1282 11.524 70.3015 10.884C71.4748 10.2227 72.6375 9.892 73.7895 9.892C74.4935 9.892 74.9522 10.0947 75.1655 10.5C75.3788 10.9053 75.4855 11.5133 75.4855 12.324L75.5175 16.004H76.3815C77.5548 16.004 78.3548 16.164 78.7815 16.484C79.2295 16.7827 79.4535 17.3373 79.4535 18.148C79.4535 18.4893 79.3895 18.7773 79.2615 19.012C79.1335 19.2467 78.9202 19.428 78.6215 19.556C78.3442 19.684 78.0028 19.78 77.5975 19.844C77.1922 19.8867 76.6908 19.908 76.0935 19.908H75.5175V23.428C75.5175 23.7693 75.5282 24.0573 75.5495 24.292C75.5922 24.5053 75.6455 24.676 75.7095 24.804C75.7735 24.932 75.8588 25.0173 75.9655 25.06C76.0935 25.1027 76.2428 25.124 76.4135 25.124C76.6695 25.124 76.8828 25.0387 77.0535 24.868C77.2242 24.676 77.3522 24.4733 77.4375 24.26C77.5442 24.0253 77.6722 23.8227 77.8215 23.652C77.9922 23.46 78.1842 23.364 78.3975 23.364C78.8882 23.364 79.2615 23.4813 79.5175 23.716C79.7948 23.9507 79.9335 24.2387 79.9335 24.58C79.9335 25.156 79.8162 25.7747 79.5815 26.436C79.3682 27.0973 79.0482 27.7373 78.6215 28.356C78.1948 28.9747 77.5975 29.4867 76.8295 29.892C76.0828 30.2973 75.2402 30.5 74.3015 30.5C72.1895 30.5 70.6962 29.9667 69.8215 28.9C68.9468 27.8333 68.5095 26.084 68.5095 23.652ZM88.2 30.692C86.5147 30.692 85.1173 30.0093 84.008 28.644C82.8987 27.2573 82.344 25.3693 82.344 22.98C82.344 20.548 82.888 18.6173 83.976 17.188C85.0853 15.7373 86.4933 15.012 88.2 15.012C89.928 15.012 91.528 15.62 93 16.836C93.576 15.7693 94.504 15.236 95.784 15.236C96.936 15.236 97.832 15.492 98.472 16.004C99.112 16.4947 99.432 17.412 99.432 18.756V27.076C99.432 28.356 99.1653 29.252 98.632 29.764C98.0987 30.2547 97.16 30.5 95.816 30.5C94.408 30.5 93.48 30.1053 93.032 29.316C91.6667 30.2333 90.056 30.692 88.2 30.692ZM92.552 19.908C92.1893 19.2893 91.72 18.98 91.144 18.98C90.5893 18.98 90.1413 19.3853 89.8 20.196C89.4587 21.0067 89.288 21.9347 89.288 22.98C89.288 23.9613 89.448 24.836 89.768 25.604C90.088 26.372 90.536 26.756 91.112 26.756C91.7093 26.756 92.1893 26.468 92.552 25.892V19.908Z" fill="#F8FAFF"/>
<path d="M116.04 25.7C116.04 27.428 115.731 28.6653 115.112 29.412C114.493 30.1373 113.544 30.5 112.264 30.5C111.027 30.5 110.12 30.1693 109.544 29.508C108.968 28.8253 108.669 27.6307 108.648 25.924L108.616 20.74L103.688 14.98C102.792 13.956 102.344 13.0707 102.344 12.324C102.344 11.1507 102.792 10.2227 103.688 9.54C104.541 8.9 105.299 8.58 105.96 8.58C106.877 8.58 107.699 8.996 108.424 9.828L112.328 14.372L115.592 10.564C116.68 9.26267 117.843 8.612 119.08 8.612C119.997 8.612 120.712 8.868 121.224 9.38C122.099 10.2547 122.536 11.0973 122.536 11.908C122.536 12.356 122.387 12.836 122.088 13.348C121.789 13.8387 121.309 14.4787 120.648 15.268L116.04 20.9V25.7Z" fill="#F8FAFF"/>
<path d="M155.272 30.692C152.669 30.692 150.515 30.02 148.808 28.676C147.123 27.332 146.28 25.4973 146.28 23.172C146.28 20.6547 147.112 18.6707 148.776 17.22C150.461 15.748 152.627 15.012 155.272 15.012C157.768 15.012 159.592 15.46 160.744 16.356C161.917 17.2307 162.504 18.436 162.504 19.972C162.504 20.2707 162.461 20.5587 162.376 20.836C162.312 21.1133 162.195 21.3907 162.024 21.668C161.875 21.924 161.661 22.1693 161.384 22.404C161.128 22.6173 160.829 22.82 160.488 23.012C160.147 23.1827 159.741 23.3213 159.272 23.428C158.803 23.5133 158.301 23.556 157.768 23.556L153.256 23.588C153.469 24.2707 153.853 24.8147 154.408 25.22C154.963 25.604 155.667 25.796 156.52 25.796C157.437 25.796 158.376 25.6787 159.336 25.444C159.741 25.3373 160.179 25.1667 160.648 24.932C161.139 24.6973 161.491 24.58 161.704 24.58C162.067 24.58 162.344 24.6867 162.536 24.9C162.749 25.1133 162.856 25.38 162.856 25.7C162.856 26.084 162.685 26.5533 162.344 27.108C162.003 27.6413 161.523 28.1853 160.904 28.74C160.307 29.2733 159.507 29.732 158.504 30.116C157.501 30.5 156.424 30.692 155.272 30.692ZM153.096 21.54C154.568 21.5187 155.368 21.508 155.496 21.508C155.816 21.508 156.051 21.316 156.2 20.932C156.307 20.6547 156.36 20.2707 156.36 19.78C156.36 18.436 155.955 17.764 155.144 17.764C154.845 17.764 154.547 17.924 154.248 18.244C153.971 18.564 153.725 19.0227 153.512 19.62C153.299 20.196 153.16 20.836 153.096 21.54Z" fill="#F8FAFF"/>
<path fill-rule="evenodd" clip-rule="evenodd" d="M136.419 26.9686C140.623 26.1727 143.386 22.1195 142.59 17.9155C142.558 17.746 142.521 17.5789 142.478 17.4142C142.959 18.3013 143.313 19.2768 143.51 20.3212C144.538 25.7477 140.971 30.9795 135.545 32.0068C130.118 33.0341 124.887 29.4679 123.859 24.0414C122.851 18.7129 126.271 13.5721 131.533 12.4156C128.498 13.9198 126.705 17.3067 127.366 20.7976C128.162 25.0016 132.215 27.7645 136.419 26.9686Z" fill="#E2C044"/>
</svg>
