<svg width="101" height="100" viewBox="0 0 101 100" fill="none" xmlns="http://www.w3.org/2000/svg">
<g clip-path="url(#clip0_124_605)">
<path d="M28.7035 21.6797C44.2799 21.6797 56.906 34.394 56.906 50.0767C56.906 65.7595 44.2789 78.4728 28.7035 78.4728C13.128 78.4728 0.5 65.7595 0.5 50.0767C0.5 34.394 13.1271 21.6797 28.7035 21.6797ZM73.7424 23.3431C81.5306 23.3431 87.8442 35.311 87.8442 50.0767H87.8451C87.8451 64.8387 81.5316 76.8103 73.7434 76.8103C65.9552 76.8103 59.6416 64.8387 59.6416 50.0767C59.6416 35.3148 65.9542 23.3431 73.7424 23.3431ZM95.5404 26.1276C98.2789 26.1276 100.5 36.8498 100.5 50.0767C100.5 63.2998 98.2799 74.0258 95.5404 74.0258C92.8009 74.0258 90.5817 63.3027 90.5817 50.0767C90.5817 36.8508 92.8019 26.1276 95.5404 26.1276Z" fill="#0B2545"/>
</g>
<defs>
<clipPath id="clip0_124_605">
<rect width="100" height="100" fill="white" transform="translate(0.5)"/>
</clipPath>
</defs>
</svg>
