<svg width="1406" height="1360" viewBox="0 0 1406 1360" fill="none" xmlns="http://www.w3.org/2000/svg">
<g clip-path="url(#clip0_230_738)">
<path d="M235 1200C566.371 1200 835 931.371 835 600C835 268.629 566.371 0 235 0C-96.3708 0 -365 268.629 -365 600C-365 931.371 -96.3708 1200 235 1200Z" fill="#E2C044"/>
<path d="M178 960C440.335 960 653 747.335 653 485C653 222.665 440.335 10 178 10C-84.3353 10 -297 222.665 -297 485C-297 747.335 -84.3353 960 178 960Z" fill="#F8FAFF"/>
<path d="M1006 1360C1226.91 1360 1406 1180.91 1406 960C1406 739.086 1226.91 560 1006 560C785.086 560 606 739.086 606 960C606 1180.91 785.086 1360 1006 1360Z" fill="#8DA9C4"/>
</g>
<defs>
<clipPath id="clip0_230_738">
<rect width="1406" height="1360" fill="white"/>
</clipPath>
</defs>
</svg>
